<?xml version="1.0" encoding="UTF-8" standalone="no"?>
<!-- Created with Inkscape (http://www.inkscape.org/) -->

<svg
   xmlns:dc="http://purl.org/dc/elements/1.1/"
   xmlns:cc="http://creativecommons.org/ns#"
   xmlns:rdf="http://www.w3.org/1999/02/22-rdf-syntax-ns#"
   xmlns:svg="http://www.w3.org/2000/svg"
   xmlns="http://www.w3.org/2000/svg"
   xmlns:sodipodi="http://sodipodi.sourceforge.net/DTD/sodipodi-0.dtd"
   xmlns:inkscape="http://www.inkscape.org/namespaces/inkscape"
   width="3.5mm"
   height="3.5mm"
   viewBox="0 0 3.5000001 3.5"
   version="1.1"
   id="svg1362"
   inkscape:version="0.92.4 (5da689c313, 2019-01-14)"
   sodipodi:docname="linkedin.svg">
  <defs
     id="defs1356" />
  <sodipodi:namedview
     id="base"
     pagecolor="#ffffff"
     bordercolor="#666666"
     borderopacity="1.0"
     inkscape:pageopacity="0.0"
     inkscape:pageshadow="2"
     inkscape:zoom="15.839192"
     inkscape:cx="-6.8730188"
     inkscape:cy="1.0704167"
     inkscape:document-units="mm"
     inkscape:current-layer="layer1"
     showgrid="false"
     fit-margin-top="0"
     fit-margin-left="0"
     fit-margin-right="0"
     fit-margin-bottom="0"
     inkscape:window-width="1920"
     inkscape:window-height="1025"
     inkscape:window-x="0"
     inkscape:window-y="25"
     inkscape:window-maximized="1" />
  <metadata
     id="metadata1359">
    <rdf:RDF>
      <cc:Work
         rdf:about="">
        <dc:format>image/svg+xml</dc:format>
        <dc:type
           rdf:resource="http://purl.org/dc/dcmitype/StillImage" />
        <dc:title></dc:title>
      </cc:Work>
    </rdf:RDF>
  </metadata>
  <g
     inkscape:label="Layer 1"
     inkscape:groupmode="layer"
     id="layer1"
     transform="translate(37.914298,-100.60303)">
    <g
       id="g818"
       transform="matrix(0.51862949,0,0,0.51862949,-18.250825,50.112128)">
      <circle
         r="3.3742778"
         cy="100.72875"
         cx="-34.54002"
         id="path816"
         style="opacity:1;fill:#ffffff;fill-opacity:1;fill-rule:evenodd;stroke:none;stroke-width:0.9278791;stroke-linecap:round;stroke-linejoin:round;stroke-miterlimit:4;stroke-dasharray:none;stroke-dashoffset:0;stroke-opacity:1;paint-order:stroke markers fill" />
      <g
         style="fill:#3b3b3b;fill-opacity:1"
         inkscape:label="Layer 1"
         id="layer1-1"
         transform="translate(1.2447508,-7.1876213)">
        <path
           style="fill:#3b3b3b;fill-opacity:1;stroke-width:0.00478476"
           d="m -37.662106,110.06617 c -0.12474,-0.0174 -0.23063,-0.1082 -0.26395,-0.22627 -0.008,-0.0299 -0.009,-0.10218 -0.009,-1.92113 0,-1.56689 0,-1.89452 0.006,-1.91634 0.0262,-0.10684 0.11514,-0.19687 0.22559,-0.22807 0.0301,-0.008 0.10166,-0.009 1.91863,-0.009 1.817,0 1.88871,2.9e-4 1.91865,0.009 0.0866,0.0245 0.16304,0.0862 0.1995,0.16128 0.011,0.0223 0.0226,0.0523 0.0262,0.0668 0.005,0.0218 0.006,0.34945 0.006,1.91634 0,1.81895 0,1.89119 -0.009,1.92112 -0.0288,0.10235 -0.11314,0.18568 -0.22089,0.21841 -0.0277,0.008 -0.10388,0.009 -1.90666,0.009 -1.03291,2.9e-4 -1.88445,-2.9e-4 -1.89235,-0.001 z m 1.03584,-1.66892 v -0.96893 h -0.3229 -0.32299 v 0.96893 0.96894 h 0.32299 0.3229 z m 1.00114,0.37921 c 0,-0.65685 0,-0.60652 0.0348,-0.67983 0.0361,-0.0737 0.096,-0.13591 0.16261,-0.16852 0.0538,-0.0264 0.0869,-0.0333 0.15787,-0.0328 0.0535,2.9e-4 0.0676,0.002 0.10046,0.0129 0.10885,0.0357 0.17099,0.11493 0.20426,0.26051 0.0107,0.0466 0.0107,0.0468 0.0124,0.62202 v 0.57538 h 0.32296 0.32299 v -0.6328 c 0,-0.70355 0,-0.66353 -0.0348,-0.8013 -0.0654,-0.25736 -0.222181,-0.43732 -0.444681,-0.5103 -0.18307,-0.0601 -0.40618,-0.0516 -0.56165,0.0212 -0.0909,0.0426 -0.18611,0.12393 -0.24814,0.21204 l -0.0301,0.0425 v -0.13459 -0.13459 h -0.32174 -0.32177 v 0.96894 0.96894 h 0.32281 0.3229 z m -1.24844,-1.61846 c 0.0838,-0.0146 0.13891,-0.0424 0.19527,-0.0985 0.0621,-0.0619 0.092,-0.13659 0.0916,-0.22926 0,-0.2017 -0.14497,-0.33615 -0.36007,-0.33615 -0.154,0 -0.26979,0.0646 -0.32999,0.18405 -0.0271,0.0538 -0.0356,0.0973 -0.0322,0.16829 0.004,0.0942 0.0297,0.15335 0.0945,0.21836 0.0659,0.0661 0.1507,0.0988 0.25896,0.1 0.0226,1.9e-4 0.0596,-0.003 0.0822,-0.007 z"
           id="path1236-6"
           inkscape:connector-curvature="0" />
      </g>
    </g>
  </g>
</svg>
