<?xml version="1.0" encoding="UTF-8" standalone="no"?>
<!-- Created with Inkscape (http://www.inkscape.org/) -->

<svg
   xmlns:dc="http://purl.org/dc/elements/1.1/"
   xmlns:cc="http://creativecommons.org/ns#"
   xmlns:rdf="http://www.w3.org/1999/02/22-rdf-syntax-ns#"
   xmlns:svg="http://www.w3.org/2000/svg"
   xmlns="http://www.w3.org/2000/svg"
   xmlns:sodipodi="http://sodipodi.sourceforge.net/DTD/sodipodi-0.dtd"
   xmlns:inkscape="http://www.inkscape.org/namespaces/inkscape"
   width="3.5mm"
   height="3.5mm"
   viewBox="0 0 3.5000001 3.5"
   version="1.1"
   id="svg1362"
   inkscape:version="0.92.4 (5da689c313, 2019-01-14)"
   sodipodi:docname="mail.svg">
  <defs
     id="defs1356" />
  <sodipodi:namedview
     id="base"
     pagecolor="#ffffff"
     bordercolor="#666666"
     borderopacity="1.0"
     inkscape:pageopacity="0.0"
     inkscape:pageshadow="2"
     inkscape:zoom="7.919596"
     inkscape:cx="13.843544"
     inkscape:cy="-10.433506"
     inkscape:document-units="mm"
     inkscape:current-layer="layer1"
     showgrid="false"
     fit-margin-top="0"
     fit-margin-left="0"
     fit-margin-right="0"
     fit-margin-bottom="0"
     inkscape:window-width="1920"
     inkscape:window-height="1025"
     inkscape:window-x="0"
     inkscape:window-y="25"
     inkscape:window-maximized="1" />
  <metadata
     id="metadata1359">
    <rdf:RDF>
      <cc:Work
         rdf:about="">
        <dc:format>image/svg+xml</dc:format>
        <dc:type
           rdf:resource="http://purl.org/dc/dcmitype/StillImage" />
        <dc:title></dc:title>
      </cc:Work>
    </rdf:RDF>
  </metadata>
  <g
     inkscape:label="Layer 1"
     inkscape:groupmode="layer"
     id="layer1"
     transform="translate(37.914298,-100.60303)">
    <g
       id="g818"
       transform="matrix(0.51862949,0,0,0.51862949,-18.250825,50.112128)">
      <circle
         r="3.3742778"
         cy="100.72875"
         cx="-34.54002"
         id="path816"
         style="opacity:1;fill:#ffffff;fill-opacity:1;fill-rule:evenodd;stroke:none;stroke-width:0.9278791;stroke-linecap:round;stroke-linejoin:round;stroke-miterlimit:4;stroke-dasharray:none;stroke-dashoffset:0;stroke-opacity:1;paint-order:stroke markers fill" />
      <g
         style="fill:#3b3b3b;fill-opacity:1"
         inkscape:label="Layer 1"
         id="layer1-3"
         transform="translate(2.5016469,1.7882834)">
        <path
           style="fill:#3b3b3b;fill-opacity:1;stroke-width:0.00458603"
           d="m -38.667347,100.69744 c -0.23729,-0.0302 -0.42376,-0.18168 -0.49733,-0.40407 -0.0295,-0.0891 -0.0277,-0.003 -0.0277,-1.353415 0,-1.348644 -0.003,-1.266956 0.0277,-1.354144 0.0687,-0.205057 0.23071,-0.349445 0.44484,-0.396466 0.0376,-0.0083 0.095,-0.0086 1.67846,-0.0086 1.58349,0 1.64084,2.83e-4 1.67849,0.0086 0.244541,0.0537 0.42364,0.238475 0.46501,0.479701 0.007,0.03932 0.007,0.159401 0.007,1.270757 -3e-5,1.107817 0,1.231537 -0.008,1.270477 -0.037,0.21568 -0.18779,0.39059 -0.3968,0.46016 -0.0972,0.0323 0.0305,0.0302 -1.75181,0.0294 -0.88373,-3e-4 -1.61299,-10e-4 -1.62055,-0.002 z m 3.224281,-0.39171 c 0.0739,-0.0136 0.131909,-0.0654 0.15358,-0.13709 0.009,-0.0294 0.009,-0.0466 0.008,-1.027909 l -0.003,-0.998039 -0.81173,0.568316 c -0.44644,0.312578 -0.82284,0.575756 -0.83647,0.584844 -0.0667,0.04452 -0.15438,0.04452 -0.22107,0 -0.0136,-0.0091 -0.390031,-0.272266 -0.836481,-0.584844 l -0.81173,-0.568316 -0.003,0.998039 c -0.003,0.981329 -0.003,0.998539 0.008,1.027909 0.0212,0.0696 0.0761,0.12045 0.14704,0.13586 0.0347,0.007 3.16287,0.009 3.20362,10e-4 z m -0.725481,-2.019712 c 0.47565,-0.332946 0.864891,-0.607859 0.86495,-0.610917 0,-0.01 -0.0388,-0.05365 -0.063,-0.07056 -0.013,-0.0091 -0.0356,-0.02043 -0.0502,-0.02523 -0.026,-0.0085 -0.0666,-0.0087 -1.62484,-0.0087 -1.55818,0 -1.59887,1.83e-4 -1.62481,0.0087 -0.0147,0.0048 -0.0372,0.01614 -0.0502,0.02523 -0.0243,0.01696 -0.0632,0.06066 -0.0629,0.07056 0,0.0077 1.72926,1.218127 1.7386,1.217099 0.004,-2.83e-4 0.39672,-0.273239 0.87238,-0.606182 z"
           id="path1258-7"
           inkscape:connector-curvature="0" />
      </g>
    </g>
  </g>
</svg>
