<?xml version="1.0" encoding="UTF-8" standalone="no"?>
<!-- Created with Inkscape (http://www.inkscape.org/) -->

<svg
   xmlns:dc="http://purl.org/dc/elements/1.1/"
   xmlns:cc="http://creativecommons.org/ns#"
   xmlns:rdf="http://www.w3.org/1999/02/22-rdf-syntax-ns#"
   xmlns:svg="http://www.w3.org/2000/svg"
   xmlns="http://www.w3.org/2000/svg"
   xmlns:sodipodi="http://sodipodi.sourceforge.net/DTD/sodipodi-0.dtd"
   xmlns:inkscape="http://www.inkscape.org/namespaces/inkscape"
   width="3.5mm"
   height="3.5mm"
   viewBox="0 0 3.5000001 3.5"
   version="1.1"
   id="svg1362"
   inkscape:version="0.92.4 (5da689c313, 2019-01-14)"
   sodipodi:docname="web.svg">
  <defs
     id="defs1356" />
  <sodipodi:namedview
     id="base"
     pagecolor="#ffffff"
     bordercolor="#666666"
     borderopacity="1.0"
     inkscape:pageopacity="0.0"
     inkscape:pageshadow="2"
     inkscape:zoom="7.919596"
     inkscape:cx="-44.948103"
     inkscape:cy="8.7504698"
     inkscape:document-units="mm"
     inkscape:current-layer="layer1"
     showgrid="false"
     fit-margin-top="0"
     fit-margin-left="0"
     fit-margin-right="0"
     fit-margin-bottom="0"
     inkscape:window-width="1920"
     inkscape:window-height="1025"
     inkscape:window-x="0"
     inkscape:window-y="25"
     inkscape:window-maximized="1" />
  <metadata
     id="metadata1359">
    <rdf:RDF>
      <cc:Work
         rdf:about="">
        <dc:format>image/svg+xml</dc:format>
        <dc:type
           rdf:resource="http://purl.org/dc/dcmitype/StillImage" />
        <dc:title></dc:title>
      </cc:Work>
    </rdf:RDF>
  </metadata>
  <g
     inkscape:label="Layer 1"
     inkscape:groupmode="layer"
     id="layer1"
     transform="translate(37.914298,-100.60303)">
    <g
       id="g816"
       transform="matrix(0.51862949,0,0,0.51862949,-18.250825,50.112128)">
      <circle
         r="3.3742778"
         cy="100.72875"
         cx="-34.54002"
         id="path816"
         style="opacity:1;fill:#ffffff;fill-opacity:1;fill-rule:evenodd;stroke:none;stroke-width:0.9278791;stroke-linecap:round;stroke-linejoin:round;stroke-miterlimit:4;stroke-dasharray:none;stroke-dashoffset:0;stroke-opacity:1;paint-order:stroke markers fill" />
      <path
         inkscape:connector-curvature="0"
         id="path1500-3"
         d="m -34.729616,102.87497 c -0.39718,-0.0339 -0.78388,-0.18392 -1.11519,-0.43276 -0.10519,-0.079 -0.28894,-0.25787 -0.37283,-0.36291 -0.25269,-0.31643 -0.40848,-0.68366 -0.46252,-1.09025 -0.0176,-0.13203 -0.0127,-0.44467 0.009,-0.5809 0.0759,-0.476729 0.28477,-0.883949 0.6249,-1.218379 0.3232,-0.31781 0.72597,-0.5191 1.18617,-0.59278 0.15325,-0.0245 0.46857,-0.0268 0.61458,-0.004 0.49276,0.0757 0.9069,0.28558 1.24217,0.62964 0.116039,0.11907 0.17103,0.18626 0.25433,0.31072 0.18094,0.27034 0.2928,0.563009 0.344159,0.900429 0.0225,0.14766 0.0204,0.46276 -0.004,0.61457 -0.0771,0.47809 -0.28476,0.88262 -0.62541,1.2183 -0.32136,0.31668 -0.73025,0.52143 -1.18168,0.5917 -0.12595,0.0198 -0.38309,0.0282 -0.51355,0.0169 z m 0.0463,-0.72413 v -0.42093 h -0.34517 c -0.2985,0 -0.34518,0.003 -0.34518,0.0124 0,0.0274 0.0845,0.2161 0.15272,0.34118 0.0536,0.0982 0.18434,0.2628 0.26166,0.32935 0.0899,0.0774 0.22407,0.15756 0.26544,0.15866 0.008,2e-4 0.0105,-0.0894 0.0105,-0.42068 z m 0.38238,0.38586 c 0.18518,-0.0906 0.36228,-0.29165 0.50049,-0.56812 0.0516,-0.10315 0.0937,-0.2054 0.0937,-0.2273 0,-0.0102 -0.0523,-0.0116 -0.343059,-0.01 l -0.34307,0.003 -0.002,0.41902 -0.002,0.41901 0.0232,-0.006 c 0.0128,-0.003 0.0457,-0.0164 0.0731,-0.0299 z m -1.0526,-0.13538 c -0.003,-0.006 -0.0162,-0.0237 -0.0285,-0.04 -0.0225,-0.0296 -0.0874,-0.13697 -0.12936,-0.21393 -0.0401,-0.0735 -0.0915,-0.19183 -0.13208,-0.30384 l -0.0397,-0.10945 -0.21147,-0.003 c -0.14804,-0.003 -0.21148,0 -0.21148,0.007 0,0.0284 0.15789,0.22372 0.26198,0.32405 0.13502,0.13016 0.26952,0.22925 0.42416,0.31248 0.0758,0.0408 0.0748,0.0404 0.0664,0.026 z m 1.82559,-0.10426 c 0.14991,-0.0957 0.32835,-0.25592 0.43937,-0.39457 0.0706,-0.0881 0.114279,-0.15074 0.114279,-0.16372 0,-0.007 -0.0635,-0.009 -0.211769,-0.007 l -0.21178,0.003 -0.0394,0.10944 c -0.0659,0.18328 -0.1494,0.35205 -0.23928,0.48379 -0.0236,0.0346 -0.0463,0.0684 -0.0504,0.0751 -0.009,0.0144 0.11042,-0.0489 0.19894,-0.10538 z m -2.2363,-0.8739 c -0.0151,-0.0602 -0.0484,-0.30381 -0.0572,-0.41938 l -0.0102,-0.13259 h -0.28553 -0.28554 l 0.006,0.0568 c 0.0136,0.13081 0.056,0.31344 0.10119,0.4357 0.012,0.0324 0.0234,0.0636 0.0254,0.0695 0.003,0.008 0.0619,0.0104 0.25738,0.0104 h 0.253741 z m 1.08093,-0.26574 v -0.28623 h -0.43015 -0.43015 l 0.006,0.0821 c 0.0101,0.14915 0.032,0.30291 0.0635,0.44619 l 0.01,0.0442 h 0.39078 0.39078 z m 1.07228,0.2715 c 0.005,-0.0175 0.0258,-0.12771 0.0384,-0.20413 0.0116,-0.0699 0.0235,-0.17668 0.0307,-0.27574 l 0.006,-0.0779 h -0.43045 -0.43045 v 0.28623 0.28624 h 0.390909 c 0.365071,0 0.391191,0 0.395131,-0.0147 z m 0.81917,-0.0442 c 0.0481,-0.12706 0.0944,-0.32253 0.10831,-0.45672 l 0.006,-0.0568 h -0.28564 -0.28565 l -0.0104,0.13259 c -0.0102,0.13064 -0.0355,0.3193 -0.0515,0.38514 -0.005,0.0186 -0.008,0.0385 -0.008,0.0443 -1.6e-4,0.009 0.0533,0.0102 0.253251,0.009 l 0.25345,-0.003 z m -3.02939,-0.93238 c 0.01,-0.12426 0.0311,-0.28476 0.0514,-0.38814 0.005,-0.0248 0.007,-0.0475 0.005,-0.0505 -0.002,-0.003 -0.116,-0.004 -0.25368,0 l -0.25034,0.004 -0.0243,0.0673 c -0.0499,0.13857 -0.0904,0.31115 -0.10418,0.44411 l -0.006,0.0568 h 0.28546 0.28546 z m 1.13794,-0.15364 v -0.28623 h -0.39091 c -0.36507,0 -0.39119,0 -0.39513,0.0147 -0.005,0.0175 -0.0258,0.1277 -0.0384,0.20413 -0.0116,0.0699 -0.0235,0.17667 -0.0307,0.27573 l -0.006,0.0779 h 0.43045 0.43044 z m 1.141329,0.20836 c -0.0104,-0.15025 -0.0319,-0.30401 -0.0604,-0.43358 l -0.0134,-0.061 h -0.39063 -0.390629 v 0.28624 0.28623 h 0.43026 0.43025 z m 0.858431,0.0212 c -0.0139,-0.13419 -0.0602,-0.32966 -0.10831,-0.45672 l -0.0207,-0.0547 -0.25439,-0.003 -0.25439,-0.003 0.005,0.0206 c 0.0153,0.0608 0.0483,0.30401 0.057,0.4195 l 0.01,0.13259 h 0.28575 0.28575 z m -2.95963,-0.915549 c 0.0659,-0.18328 0.1494,-0.35205 0.23927,-0.48379 0.0236,-0.0346 0.0463,-0.0684 0.0504,-0.0751 0.009,-0.0141 -0.11042,0.0489 -0.19894,0.10538 -0.14991,0.0957 -0.32835,0.25593 -0.43937,0.39458 -0.0706,0.0881 -0.11429,0.15073 -0.11429,0.16372 0,0.007 0.0635,0.008 0.21178,0.007 l 0.21177,-0.003 z m 0.95987,-0.30746 v -0.4211 l -0.0231,0.006 c -0.0127,0.003 -0.0456,0.0164 -0.073,0.0299 -0.18498,0.0905 -0.36345,0.29326 -0.50092,0.56902 -0.0515,0.10335 -0.0933,0.20461 -0.0933,0.22614 0,0.01 0.0572,0.0116 0.34518,0.0116 h 0.34517 z m 0.97658,0.40889 c 0,-0.0203 -0.0465,-0.13169 -0.0978,-0.23388 -0.120589,-0.24062 -0.267789,-0.41899 -0.432629,-0.5242 -0.053,-0.0338 -0.13265,-0.0716 -0.151,-0.0716 -0.01,0 -0.0134,0.82618 -0.004,0.83592 0.003,0.003 0.15821,0.005 0.34517,0.006 0.296199,0 0.33992,0 0.33992,-0.0121 z m 0.732439,0.003 c 0,-0.0282 -0.162479,-0.22838 -0.266179,-0.32808 -0.13189,-0.12683 -0.26353,-0.2231 -0.42281,-0.30921 -0.0725,-0.0392 -0.0753,-0.038 -0.0351,0.0149 0.0801,0.10533 0.197221,0.33701 0.261771,0.51777 0.0182,0.0509 0.0348,0.0973 0.0369,0.10312 0.005,0.0138 0.42533,0.0155 0.42533,0.003 z"
         style="fill:#3b3b3b;fill-opacity:1;stroke-width:0.00841885" />
    </g>
  </g>
</svg>
